<svg width="36" height="36" viewBox="0 0 36 36" fill="none" xmlns="http://www.w3.org/2000/svg">
  <path d="M18 13.5C15.5147 13.5 14.0625 15.2578 14.0625 18C14.0625 20.7422 15.5147 22.5 18 22.5C20.4853 22.5 21.9375 20.7422 21.9375 18C21.9375 15.2578 20.4853 13.5 18 13.5Z" stroke="currentColor" stroke-width="1.5"/>
  <path d="M9 18C6.51472 18 5.0625 19.7578 5.0625 22.5C5.0625 25.2422 6.51472 27 9 27C11.4853 27 12.9375 25.2422 12.9375 22.5C12.9375 19.7578 11.4853 18 9 18Z" stroke="currentColor" stroke-width="1.5"/>
  <path d="M27 18C24.5147 18 23.0625 19.7578 23.0625 22.5C23.0625 25.2422 24.5147 27 27 27C29.4853 27 30.9375 25.2422 30.9375 22.5C30.9375 19.7578 29.4853 18 27 18Z" stroke="currentColor" stroke-width="1.5"/>
</svg>
